<svg width="590" height="590" viewBox="0 0 590 590" fill="none" xmlns="http://www.w3.org/2000/svg">
<path d="M322.788 19.8742C374.012 30.1793 432.23 58.6746 456.027 108.082C491.991 182.731 556.685 181.977 573.311 323.337C575.905 345.378 576.068 366.107 574.13 385.483C573.09 395.899 571.428 405.93 569.205 415.553C549.116 502.907 482.84 557.411 406.892 573.216C307.007 594.02 247.796 531.485 212.401 490.347C177.007 449.211 59.3697 411.637 41.9334 272.799C39.2838 251.631 38.7984 230.164 41.0557 208.926C46.19 160.448 66.4408 108.762 102.707 74.8032C105.432 72.2537 108.243 69.7879 111.127 67.3951C167.564 20.6848 252.952 5.82033 322.788 19.8742Z" fill="#FFEAF0"/>
<path d="M286.984 76.6348V89.3291" stroke="#263238" stroke-width="2.35625" stroke-miterlimit="10"/>
<path d="M286.984 33.8711V68.4585" stroke="#263238" stroke-width="2.35625" stroke-miterlimit="10"/>
<path d="M152.76 59.5918L179.283 91.7417" stroke="#263238" stroke-width="2.35625" stroke-miterlimit="10"/>
<path d="M20.1406 146.396L66.7579 164.882" stroke="#263238" stroke-width="2.35625" stroke-miterlimit="10"/>
<path d="M45.7793 249.275H60.328" stroke="#263238" stroke-width="2.35625" stroke-miterlimit="10"/>
<path d="M13.7109 249.275H36.642" stroke="#263238" stroke-width="2.35625" stroke-miterlimit="10"/>
<path d="M418.801 59.5918L392.277 91.7417" stroke="#263238" stroke-width="2.35625" stroke-miterlimit="10"/>
<path d="M529.613 155.029L504.801 164.882" stroke="#263238" stroke-width="2.35625" stroke-miterlimit="10"/>
<path d="M551.418 146.396L538.746 151.421" stroke="#263238" stroke-width="2.35625" stroke-miterlimit="10"/>
<path d="M286.984 537.017V481.559" stroke="#263238" stroke-width="2.35625" stroke-miterlimit="10"/>
<path d="M168.807 491.844L179.281 479.146" stroke="#263238" stroke-width="2.35625" stroke-miterlimit="10"/>
<path d="M152.76 511.297L162.909 498.994" stroke="#263238" stroke-width="2.35625" stroke-miterlimit="10"/>
<path d="M20.1406 424.492L66.7579 406.006" stroke="#263238" stroke-width="2.35625" stroke-miterlimit="10"/>
<path d="M408.01 498.219L392.275 479.146" stroke="#263238" stroke-width="2.35625" stroke-miterlimit="10"/>
<path d="M418.798 511.297L411.9 502.936" stroke="#263238" stroke-width="2.35625" stroke-miterlimit="10"/>
<path d="M551.416 424.492L504.799 406.006" stroke="#263238" stroke-width="2.35625" stroke-miterlimit="10"/>
<path d="M557.848 249.275H511.23" stroke="#263238" stroke-width="2.35625" stroke-miterlimit="10"/>
<path d="M329.932 486.327C329.932 486.327 329.932 474.735 326.182 466.894C322.432 459.052 311.864 444.733 305.386 435.87C298.909 427.006 300.614 413.369 300.614 413.369C300.614 413.369 289.704 410.301 276.067 392.573C262.43 374.844 259.703 350.98 259.703 350.98L312.887 340.411C312.887 340.411 329.361 319.473 337.884 337.542C346.406 355.611 344.253 422.914 346.98 434.506C349.707 446.097 350.389 482.917 350.389 482.917" fill="#403035"/>
<path d="M329.932 486.327C329.932 486.327 329.932 474.735 326.182 466.894C322.432 459.052 311.864 444.733 305.386 435.87C298.909 427.006 300.614 413.369 300.614 413.369C300.614 413.369 289.704 410.301 276.067 392.573C262.43 374.844 259.703 350.98 259.703 350.98L312.887 340.411C312.887 340.411 329.361 319.473 337.884 337.542C346.406 355.611 344.253 422.914 346.98 434.506C349.707 446.097 350.389 482.917 350.389 482.917" stroke="#403035" stroke-width="1.17813" stroke-miterlimit="10"/>
<path d="M306.748 333.252C306.748 333.252 309.816 349.958 311.862 361.548C313.908 373.14 320.385 383.709 320.385 383.709C320.385 383.709 316.975 395.982 320.725 408.597C324.475 421.211 328.225 446.099 346.294 447.803C364.363 449.508 371.863 438.257 371.863 438.257C371.863 438.257 391.296 445.757 406.638 434.165C421.979 422.574 432.207 400.755 427.775 385.072C423.343 369.39 417.888 362.23 394.705 353.706C371.521 345.184 338.793 352.684 333.679 356.093C328.565 359.503 324.474 368.367 324.474 368.367L316.292 346.548L312.883 331.889L306.748 333.252Z" fill="#FFDADA" stroke="#403035" stroke-width="1.17813" stroke-miterlimit="10"/>
<path d="M79.3516 228.93C79.3516 228.93 80.7147 260.977 98.4431 279.727C116.172 298.478 136.286 308.024 150.945 309.728C165.605 311.432 175.833 313.82 175.833 313.82C175.833 313.82 182.652 358.14 207.88 367.004C233.109 375.868 236.177 375.526 246.405 369.049C256.634 362.572 264.474 356.775 264.474 356.775C264.474 356.775 218.109 352.343 205.494 326.092C192.879 299.841 171.743 280.067 149.582 268.476C127.421 256.884 88.2158 238.475 86.8515 235.748C85.4884 233.02 79.3516 228.93 79.3516 228.93Z" fill="#403035" stroke="#403035" stroke-width="1.17813" stroke-miterlimit="10"/>
<path d="M109.694 167.903C109.694 167.903 104.921 173.358 101.852 177.45C98.7842 181.541 97.42 184.95 97.42 184.95C97.42 184.95 84.8058 193.132 81.7379 202.337C78.6701 211.541 76.9653 217.338 78.3284 226.542C79.6927 235.747 83.101 243.929 83.101 243.929C83.101 243.929 83.4415 252.793 97.7605 258.248C112.079 263.703 154.014 279.727 156.059 281.431C158.104 283.136 173.446 293.705 173.446 293.705L176.855 311.092C176.855 311.092 178.9 332.57 182.31 338.365C185.719 344.161 191.174 359.502 202.084 365.299C212.993 371.094 226.63 370.753 235.154 368.708C243.676 366.663 249.473 363.936 268.905 357.457C288.337 350.979 295.497 349.275 296.86 348.934C298.223 348.594 344.249 358.481 356.864 356.094C369.478 353.707 374.592 348.934 374.592 348.934C374.592 348.934 381.069 361.208 390.616 367.003C400.162 372.799 425.731 385.754 428.799 388.14C431.867 390.527 435.618 398.027 444.481 396.663C453.345 395.298 458.118 383.708 459.14 382.344C460.163 380.98 472.777 365.638 476.527 358.138C480.277 350.638 481.641 344.842 481.641 344.842C481.641 344.842 493.233 332.91 490.846 312.794C488.459 292.68 485.732 275.634 480.619 260.973C475.506 246.313 472.777 240.859 472.777 240.859C472.777 240.859 469.368 208.471 453.686 193.47C438.004 178.469 428.798 174.037 428.798 174.037C428.798 174.037 417.888 157.331 402.887 151.195C387.886 145.058 365.385 127.672 354.817 123.58C344.248 119.488 338.111 122.557 338.111 122.557C338.111 122.557 309.133 113.353 287.655 113.353C266.176 113.353 266.176 113.353 266.176 113.353C266.176 113.353 245.039 108.921 223.561 113.353C202.082 117.785 179.581 114.375 163.899 121.194C148.217 128.013 131.511 144.036 131.511 144.036C131.511 144.036 113.785 155.289 109.694 167.903Z" fill="#FEA6C0"/>
<path opacity="0.2" d="M480.62 260.976C475.506 246.317 472.779 240.862 472.779 240.862C472.779 240.862 469.369 208.474 453.687 193.473C446.432 186.534 440.585 181.878 436.373 178.854C420.784 364.836 220.843 284.442 166.666 289.005C170.299 291.535 173.447 293.704 173.447 293.704L176.857 311.091C176.857 311.091 178.902 332.57 182.312 338.365C185.721 344.16 191.176 359.502 202.085 365.298C212.995 371.093 226.631 370.753 235.155 368.707C243.678 366.662 249.474 363.935 268.906 357.458C288.339 350.98 295.499 349.275 296.862 348.935C298.226 348.595 344.251 358.481 356.865 356.094C369.479 353.708 374.594 348.935 374.594 348.935C374.594 348.935 381.071 361.209 390.617 367.004C400.164 372.799 425.733 385.755 428.8 388.142C431.868 390.529 435.619 398.029 444.482 396.664C453.346 395.3 458.119 383.71 459.142 382.345C460.165 380.981 472.779 365.64 476.529 358.14C480.279 350.64 481.643 344.843 481.643 344.843C481.643 344.843 493.235 332.911 490.848 312.796C488.462 292.682 485.735 275.637 480.62 260.976Z" fill="black"/>
<path opacity="0.2" d="M267.436 188.063C267.436 188.063 264.663 178.558 257.138 197.173C249.612 215.788 246.444 230.839 237.73 237.968C229.017 245.096 210.005 242.324 207.629 246.285C205.253 250.246 206.045 253.414 206.045 253.414C206.045 253.414 215.55 252.622 219.906 252.622C224.263 252.622 238.126 254.207 238.126 254.207L248.424 250.246C248.424 250.246 246.84 244.305 247.632 243.117C248.424 241.928 254.761 238.365 256.742 228.067C258.722 217.769 259.91 200.738 261.098 198.361C262.287 195.985 267.436 188.063 267.436 188.063Z" fill="black"/>
<path opacity="0.2" d="M242.484 284.309C242.484 284.309 254.763 276.783 262.288 276.783C269.813 276.783 284.467 279.555 299.122 272.822C313.776 266.089 332.392 252.226 332.392 252.226C332.392 252.226 352.988 258.563 365.661 246.681C378.335 234.799 377.94 214.203 385.464 213.014C392.989 211.826 391.01 235.194 385.86 241.531C380.712 247.868 371.998 262.523 366.057 264.899C360.116 267.275 350.611 270.048 343.085 270.048C335.559 270.048 327.638 272.82 327.638 272.82L311.399 281.533L291.992 285.098C291.992 285.098 273.773 290.644 269.812 290.644C265.853 290.645 245.652 283.12 242.484 284.309Z" fill="black"/>
<path opacity="0.2" d="M349.422 134.594C349.422 134.594 350.214 145.288 344.274 152.416C338.333 159.545 341.106 161.923 336.352 166.675C331.6 171.428 327.243 171.032 322.489 176.577C317.737 182.123 316.548 185.687 314.567 187.271C312.587 188.856 303.478 182.915 296.349 194.796C289.22 206.679 298.725 213.412 293.577 226.086C288.428 238.76 286.844 242.721 286.844 242.721L307.044 237.573C307.044 237.573 301.103 228.463 300.311 219.75C299.519 211.037 298.726 200.739 304.272 195.986C309.817 191.233 314.966 191.233 314.966 191.233C314.966 191.233 322.49 180.144 326.451 177.37C330.412 174.598 348.324 166.076 350.611 165.092C352.898 164.108 355.364 164.3 355.364 164.3V145.685L352.591 140.139L349.422 134.594Z" fill="black"/>
<path opacity="0.2" d="M373.188 144.496C373.188 144.496 380.316 149.645 383.09 160.735C385.863 171.826 381.902 172.618 381.902 172.618L390.22 175.786C390.22 175.786 390.616 165.488 386.655 156.379C382.693 147.268 373.188 144.496 373.188 144.496Z" fill="black"/>
<path opacity="0.2" d="M265.854 130.635C265.854 130.635 258.329 139.348 252.388 144.894C246.446 150.439 233.772 157.568 227.039 154.796C220.306 152.024 218.326 148.854 218.326 148.854C218.326 148.854 229.415 160.34 227.435 167.074C225.454 173.807 218.721 188.462 207.236 191.234C195.75 194.006 177.531 188.462 168.025 191.234C158.52 194.006 154.164 208.661 153.371 210.641C152.579 212.622 147.825 210.246 141.488 208.661C135.151 207.076 131.586 207.473 131.586 207.473C131.586 207.473 138.715 216.187 137.131 220.939C135.547 225.692 131.983 226.485 131.983 226.485C131.983 226.485 139.905 223.317 143.469 222.524C147.034 221.732 153.371 223.713 153.371 223.713C153.371 223.713 163.273 205.097 170.402 203.91C177.531 202.722 183.472 206.286 183.472 206.286C183.472 206.286 196.542 197.177 201.295 197.177C206.047 197.177 214.761 204.702 214.761 204.702C214.761 204.702 217.533 199.95 219.909 198.761C222.285 197.572 225.85 196.781 225.85 196.781C225.85 196.781 226.642 176.185 232.187 168.66C237.733 161.135 259.121 150.044 259.121 150.044C259.121 150.044 253.575 145.289 265.854 130.635Z" fill="black"/>
<path opacity="0.2" d="M207.629 225.295C207.629 225.295 200.501 241.534 195.351 243.515C190.203 245.495 186.242 239.158 186.242 239.158C186.242 239.158 187.43 250.248 183.074 251.832C178.717 253.417 171.984 248.664 171.984 248.664C171.984 248.664 171.588 251.832 167.231 252.625C162.875 253.417 150.2 246.288 143.863 239.951C137.526 233.614 135.942 228.861 135.942 228.861C135.942 228.861 131.585 234.802 133.961 239.159C136.337 243.516 149.408 251.438 153.764 253.418C158.121 255.398 182.281 265.301 182.281 265.301C182.281 265.301 190.203 258.963 193.766 257.379C197.331 255.794 202.876 253.814 202.876 253.814C202.876 253.814 201.291 251.833 202.084 247.081C202.877 242.326 207.629 225.295 207.629 225.295Z" fill="black"/>
<path opacity="0.2" d="M182.282 269.654C182.282 269.654 179.114 271.635 173.173 274.011C167.232 276.387 135.546 262.128 120.099 254.604C104.653 247.078 89.6024 230.84 88.0179 224.898C86.4333 218.957 86.8303 215.789 86.8303 215.789C86.8303 215.789 82.0778 237.573 86.4345 246.286C90.7912 254.999 116.536 262.921 126.041 266.882C135.547 270.843 163.723 288.95 166.666 289.006C169.609 289.063 175.946 295.4 175.946 295.4C175.946 295.4 176.984 283.259 177.531 279.558C178.075 275.854 182.282 269.654 182.282 269.654Z" fill="black"/>
<path opacity="0.2" d="M409.228 236.385C409.228 236.385 419.922 240.741 429.824 237.969C439.727 235.197 445.667 224.503 449.628 228.067C453.588 231.632 459.53 247.87 459.133 264.505C458.736 281.14 456.756 283.517 458.341 286.289C459.926 289.061 465.074 290.646 460.717 291.041C456.361 291.437 452.4 290.25 452.4 290.25C452.4 290.25 454.776 275.991 450.815 263.317C446.854 250.642 448.345 244.033 443.686 241.533C439.028 239.032 440.914 240.741 427.844 243.909C414.773 247.078 406.965 242.381 409.228 236.385Z" fill="black"/>
<path opacity="0.2" d="M400.118 264.109C400.118 264.109 399.684 279.956 405.267 284.308C410.851 288.662 414.376 282.724 413.584 284.704C412.793 286.685 404.475 299.359 408.039 308.072C411.604 316.786 433.783 319.558 433.783 319.558C433.783 319.558 452.399 324.31 459.924 331.043C467.45 337.776 466.657 348.47 466.657 348.47L446.854 338.965C446.854 338.965 446.062 330.252 439.725 330.252C433.388 330.252 427.05 330.648 419.129 328.667C411.207 326.687 403.76 323.458 401.702 316.786C399.644 310.114 396.949 304.903 394.969 304.507C392.988 304.111 388.236 302.131 388.236 302.131C388.236 302.131 374.373 297.379 371.997 296.586C369.62 295.794 359.322 295.001 359.322 295.001C359.322 295.001 378.73 291.436 385.067 286.288C391.405 281.14 400.118 264.109 400.118 264.109Z" fill="black"/>
<path opacity="0.2" d="M470.224 285.893C470.224 285.893 472.996 298.172 461.906 300.944C450.817 303.716 434.577 302.131 430.616 297.379C426.656 292.626 436.162 271.634 436.162 271.634C436.162 271.634 432.597 271.239 429.429 265.297C426.26 259.356 423.092 250.643 423.092 250.643C423.092 250.643 421.111 259.356 421.111 263.317C421.111 267.278 424.676 302.131 424.676 302.131C424.676 302.131 436.559 303.716 444.875 308.469C453.192 313.221 460.718 317.578 460.718 317.578C460.718 317.578 463.094 310.449 465.47 308.073C467.848 305.698 475.373 295.795 470.224 285.893Z" fill="black"/>
<path opacity="0.2" d="M213.175 293.418C213.175 293.418 212.779 314.41 228.622 315.995C244.464 317.579 255.951 308.469 265.852 308.469C275.754 308.469 276.15 312.825 282.883 310.449C289.616 308.073 299.122 301.736 309.023 303.32C318.925 304.905 331.599 312.43 336.748 312.43C341.896 312.43 347.442 310.053 352.59 310.845C357.738 311.637 373.186 315.993 375.958 314.806C378.73 313.617 375.166 319.163 370.81 320.747C366.453 322.332 362.492 323.123 362.492 323.123C362.492 323.123 358.531 317.975 348.63 317.975C338.728 317.975 322.093 315.995 316.549 315.203C311.003 314.411 303.874 310.054 299.518 311.638C295.161 313.222 275.754 321.54 271.793 321.54C267.832 321.54 253.573 316.787 242.483 321.144C231.394 325.501 225.452 327.481 224.661 330.649C223.869 333.818 229.809 341.343 234.563 342.532C239.315 343.721 244.861 344.117 260.703 338.175C276.545 332.234 285.656 323.916 306.647 328.273C327.638 332.63 347.442 339.363 353.383 341.343C359.324 343.324 368.829 345.7 374.771 343.72C380.712 341.739 383.088 338.174 383.088 338.174C383.088 338.174 384.277 344.511 380.316 345.7C376.355 346.889 371.998 350.848 365.661 349.661C359.324 348.472 317.631 331.212 306.748 333.252C295.864 335.292 278.526 336.589 278.526 337.778C278.526 338.967 311.796 336.986 320.905 341.343C330.015 345.7 343.878 350.452 348.63 352.037C353.383 353.622 361.305 354.809 361.305 354.809C361.305 354.809 339.125 356.394 323.678 353.225C308.231 350.057 294.368 350.848 294.368 350.848C294.368 350.848 244.067 366.691 241.295 367.088C238.523 367.483 218.322 372.236 205.252 365.107C192.182 357.978 183.469 343.719 181.092 334.61C178.716 325.501 174.359 298.964 174.359 298.964C174.359 298.964 174.755 287.874 178.32 290.646C181.885 293.418 186.242 309.657 192.183 321.539C198.125 333.42 210.799 355.601 218.719 358.769C226.641 361.938 232.572 357.726 229.017 354.412C225.462 351.098 216.739 337.777 213.571 322.331C210.403 306.884 213.175 293.418 213.175 293.418Z" fill="black"/>
<path opacity="0.2" d="M370.414 325.501C370.414 325.501 382.692 315.203 386.653 325.105C390.614 335.007 400.516 359.167 427.052 367.089C453.589 375.011 461.906 373.03 459.134 364.317C456.362 355.604 456.362 355.604 456.362 355.604C456.362 355.604 461.766 363.696 467.848 359.96C473.929 356.224 481.642 344.846 481.642 344.846C481.642 344.846 472.6 368.675 467.848 373.032C463.095 377.388 463.11 376.614 459.141 382.348C455.172 388.082 459.133 390.063 448.44 392.439C437.748 394.815 432.526 389.79 428.8 388.143C425.073 386.496 404.871 379.055 397.743 373.03C390.615 367.005 377.147 353.623 376.751 352.038C376.355 350.454 374.592 348.936 374.592 348.936C374.592 348.936 385.86 346.097 385.465 340.949C385.068 335.799 370.414 325.501 370.414 325.501Z" fill="black"/>
<path opacity="0.2" d="M398.932 184.896C398.932 184.896 409.625 192.818 410.814 204.304C412.002 215.789 404.873 220.939 402.497 226.88C400.12 232.822 399.212 240.8 406.062 242.327C412.911 243.854 412.911 243.853 412.911 243.853C412.911 243.853 407.249 234.009 410.814 230.048C414.379 226.087 428.241 216.185 429.033 214.205C429.825 212.224 425.468 207.472 428.241 204.7C431.013 201.927 434.182 203.115 438.539 205.095C442.896 207.076 455.174 215.393 455.174 215.393C455.174 215.393 458.342 211.037 445.272 201.927C432.202 192.818 426.656 195.59 419.923 194.403C413.191 193.214 398.932 184.896 398.932 184.896Z" fill="black"/>
<path opacity="0.2" d="M171.984 165.488C171.984 165.488 186.243 159.942 192.976 161.527C199.709 163.112 208.027 168.656 208.027 168.656L215.949 165.091C215.949 165.091 209.216 174.596 208.82 176.18C208.424 177.765 197.73 172.615 190.997 171.032C184.262 169.449 171.984 165.488 171.984 165.488Z" fill="black"/>
<path opacity="0.2" d="M131.584 207.473C131.584 207.473 134.752 217.771 128.812 218.166C122.872 218.562 112.177 215.394 110.989 210.245C109.801 205.096 116.931 195.986 120.494 194.005C124.059 192.025 135.941 188.46 135.941 188.46C135.941 188.46 131.98 180.934 120.89 185.688C109.801 190.44 110.196 203.511 106.236 204.699C102.275 205.887 99.1067 199.154 99.1067 199.154C99.1067 199.154 96.192 204.525 98.7109 209.452C101.23 214.379 109.374 218.566 111.385 219.354C113.396 220.142 126.231 227.061 131.981 226.483C137.732 225.906 139.507 220.146 137.527 215.393C135.546 210.641 131.584 207.473 131.584 207.473Z" fill="black"/>
<path opacity="0.2" d="M237.882 284.122C237.882 284.122 232.684 278.925 226.187 279.575C219.689 280.224 211.243 286.072 204.096 284.773C196.949 283.473 189.152 278.926 189.152 278.926C189.152 278.926 198.364 292.974 202.147 293.22C205.93 293.465 233.334 291.27 237.882 284.122Z" fill="black"/>
<path opacity="0.2" d="M335.343 199.008C335.343 199.008 339.89 211.352 335.343 220.449C330.794 229.545 314.551 233.444 308.704 230.194C302.856 226.945 300.31 219.749 300.31 219.749C300.31 219.749 299.535 231.956 307.043 237.572C307.043 237.572 321.698 235.392 324.296 236.041C326.895 236.69 332.093 236.69 332.093 236.69C332.093 236.69 336.525 229.438 341.19 221.747C345.854 214.056 347.038 210.702 348.337 206.153C349.637 201.606 350.286 199.007 356.134 196.408C361.981 193.809 361.981 193.809 361.981 193.809C361.981 193.809 357.434 187.961 349.637 192.51C341.839 197.058 341.839 201.607 335.343 199.008Z" fill="black"/>
<path opacity="0.2" d="M159.915 148.328C159.915 148.328 154.717 148.978 155.367 154.825C156.016 160.673 152.768 161.323 142.372 162.622C131.977 163.922 125.479 165.221 119.632 169.769C113.784 174.316 113.784 174.316 113.784 174.316L105.338 187.96C105.338 187.96 123.531 168.468 138.474 167.819C153.417 167.17 154.717 171.068 154.717 173.017C154.717 174.966 154.068 183.413 154.068 183.413C154.068 183.413 157.317 174.316 163.813 167.17L159.915 148.328Z" fill="black"/>
<path d="M109.694 167.903C109.694 167.903 104.921 173.358 101.852 177.45C98.7842 181.541 97.42 184.95 97.42 184.95C97.42 184.95 84.8058 193.132 81.7379 202.337C78.6701 211.541 76.9653 217.338 78.3284 226.542C79.6927 235.747 83.101 243.929 83.101 243.929C83.101 243.929 83.4415 252.793 97.7605 258.248C112.079 263.703 154.014 279.727 156.059 281.431C158.104 283.136 173.446 293.705 173.446 293.705L176.855 311.092C176.855 311.092 178.9 332.57 182.31 338.365C185.719 344.161 191.174 359.502 202.084 365.299C212.993 371.094 226.63 370.753 235.154 368.708C243.676 366.663 249.473 363.936 268.905 357.457C288.337 350.978 295.497 349.275 296.86 348.934C298.223 348.594 344.249 358.481 356.864 356.094C369.478 353.707 374.592 348.934 374.592 348.934C374.592 348.934 381.069 361.208 390.616 367.003C400.162 372.799 425.731 385.754 428.799 388.14C431.867 390.527 435.618 398.027 444.481 396.663C453.345 395.298 458.118 383.708 459.14 382.344C460.163 380.98 472.777 365.638 476.527 358.138C480.277 350.638 481.641 344.842 481.641 344.842C481.641 344.842 493.233 332.91 490.846 312.794C488.459 292.68 485.732 275.634 480.619 260.973C475.506 246.313 472.777 240.859 472.777 240.859C472.777 240.859 469.368 208.471 453.686 193.47C438.004 178.469 428.798 174.037 428.798 174.037C428.798 174.037 417.888 157.331 402.887 151.195C387.886 145.058 365.385 127.672 354.817 123.58C344.248 119.488 338.111 122.557 338.111 122.557C338.111 122.557 309.133 113.353 287.655 113.353C266.176 113.353 266.176 113.353 266.176 113.353C266.176 113.353 245.039 108.921 223.561 113.353C202.082 117.785 179.581 114.375 163.899 121.194C148.217 128.013 131.511 144.036 131.511 144.036C131.511 144.036 113.785 155.289 109.694 167.903Z" stroke="#403035" stroke-width="1.17813" stroke-miterlimit="10"/>
<path d="M195.186 266.007C195.186 266.007 195.186 260.084 204.81 258.234C214.434 256.383 221.466 259.715 221.466 259.715C221.466 259.715 197.776 263.046 195.186 266.007Z" fill="white"/>
<path d="M246.266 261.937C246.266 261.937 246.266 256.014 255.89 254.163C265.514 252.312 272.546 255.644 272.546 255.644C272.546 255.644 248.856 258.976 246.266 261.937Z" fill="white"/>
<path d="M284.021 253.052C284.021 253.052 284.021 247.129 293.646 245.279C303.27 243.428 310.302 246.759 310.302 246.759C310.302 246.759 286.612 250.09 284.021 253.052Z" fill="white"/>
<path d="M274.012 191.553C274.012 191.553 271.131 186.379 278.638 180.08C286.145 173.78 293.91 173.268 293.91 173.268C293.91 173.268 274.836 187.706 274.012 191.553Z" fill="white"/>
<path d="M236.628 176.747C236.628 176.747 233.746 171.572 241.253 165.273C248.76 158.973 256.525 158.461 256.525 158.461C256.525 158.461 237.45 172.899 236.628 176.747Z" fill="white"/>
<path d="M157.825 226.282C157.825 226.282 154.943 221.107 162.45 214.808C169.957 208.509 177.722 207.996 177.722 207.996C177.722 207.996 158.647 222.434 157.825 226.282Z" fill="white"/>
<path d="M184.203 211.648C184.203 211.648 184.273 205.726 193.918 203.989C203.563 202.251 210.555 205.666 210.555 205.666C210.555 205.666 186.828 208.718 184.203 211.648Z" fill="white"/>
<path d="M351.527 178.134C351.527 178.134 356.617 170.8 374.818 180.037C393.02 189.272 402.295 201.822 402.295 201.822C402.295 201.822 358.544 177.571 351.527 178.134Z" fill="white"/>
<path d="M165.152 157.728C165.152 157.728 164.21 151.881 173.417 148.522C182.624 145.165 190.097 147.334 190.097 147.334C190.097 147.334 167.239 154.392 165.152 157.728Z" fill="white"/>
<path d="M311.953 141.714C311.953 141.714 311.011 135.867 320.218 132.509C329.425 129.15 336.897 131.321 336.897 131.321C336.897 131.321 314.039 138.377 311.953 141.714Z" fill="white"/>
<path d="M265.193 141.585C265.193 141.585 264.251 135.738 273.458 132.38C282.665 129.021 290.138 131.192 290.138 131.192C290.138 131.192 267.28 138.25 265.193 141.585Z" fill="white"/>
<path opacity="0.35" d="M339.493 359.344C339.493 359.344 357.62 386.808 377.393 395.596C397.167 404.385 394.421 396.145 385.083 389.004C375.745 381.864 354.323 361.541 363.112 366.483C371.901 371.427 377.393 377.469 396.069 387.356C414.745 397.243 427.927 395.046 427.927 395.046C427.927 395.046 427.378 405.482 423.532 410.975C419.687 416.468 414.194 417.018 408.702 415.919C403.21 414.821 390.026 412.073 390.026 412.073C390.026 412.073 392.224 415.919 399.364 419.763C406.505 423.608 417.49 424.706 417.49 424.706C417.49 424.706 416.664 429.341 406.64 434.164C396.617 438.987 387.829 431.847 377.942 425.255C368.055 418.664 350.478 398.341 352.126 404.382C353.774 410.425 362.562 419.213 369.153 425.255C375.745 431.298 393.871 440.636 393.871 440.636C393.871 440.636 382.885 440.087 378.49 439.538C374.096 438.989 378.972 442.468 371.866 438.256C364.759 434.044 355.97 424.707 348.83 414.819C341.689 404.933 338.394 407.13 343.337 413.171C348.281 419.214 353.773 429.101 356.519 432.945C359.265 436.79 362.562 438.987 362.562 441.184C362.562 443.38 368.604 441.733 362.562 443.381C356.519 445.029 344.985 435.142 338.943 425.804C332.9 416.466 325.76 389.552 329.056 406.031C332.352 422.509 338.394 436.241 343.337 440.635C348.281 445.029 351.576 446.677 351.576 446.677C351.576 446.677 342.787 445.579 337.295 438.438C331.802 431.298 324.111 404.933 324.111 393.947C324.111 382.96 325.209 376.919 327.957 380.214C330.703 383.509 333.999 395.045 335.646 393.947C337.295 392.849 329.604 364.835 332.9 369.778C336.195 374.722 358.167 406.58 354.322 396.144C350.477 385.708 342.238 374.722 340.041 368.68C337.845 362.64 339.493 359.344 339.493 359.344Z" fill="#FF9C9C"/>
<path d="M176.794 286.101C176.794 286.101 176.153 278.416 178.075 275.855C179.996 273.293 182.557 273.614 182.557 273.614C182.557 273.614 178.716 263.047 195.365 256.003C212.014 248.959 238.59 254.722 238.59 254.722C238.59 254.722 251.077 250.56 263.565 250.24C276.052 249.919 281.816 246.717 284.058 244.797C286.299 242.875 294.304 237.432 308.712 237.432C323.121 237.432 332.407 237.753 332.407 237.753C332.407 237.753 343.934 223.344 345.855 214.058C347.777 204.772 355.461 198.369 355.461 198.369" stroke="#263238" stroke-width="2.35625" stroke-miterlimit="10" stroke-linecap="round" stroke-linejoin="round"/>
<path d="M336.568 199.971C336.568 199.971 345.854 206.375 345.854 214.059" stroke="#263238" stroke-width="2.35625" stroke-miterlimit="10" stroke-linecap="round" stroke-linejoin="round"/>
<path d="M314.156 192.605C314.156 192.605 299.107 191.325 297.826 209.575C296.546 227.825 306.472 236.791 308.714 237.432" stroke="#263238" stroke-width="2.35625" stroke-miterlimit="10" stroke-linecap="round" stroke-linejoin="round"/>
<path d="M326.434 179.133C339.93 167.991 350.906 163.586 359.623 165.389C368.909 167.311 386.199 175.956 394.523 180.438C402.848 184.92 409.252 189.083 411.493 193.886C413.734 198.689 413.734 198.689 413.734 198.689" stroke="#263238" stroke-width="2.35625" stroke-miterlimit="10" stroke-linecap="round" stroke-linejoin="round"/>
<path d="M316.717 204.452C316.717 204.452 310.833 196.607 319.23 186.066" stroke="#263238" stroke-width="2.35625" stroke-miterlimit="10" stroke-linecap="round" stroke-linejoin="round"/>
<path d="M352.901 164.11L351.941 148.421C351.941 148.421 356.103 147.14 351.3 137.214C346.497 127.289 332.088 125.047 327.605 126.008C323.123 126.968 315.758 127.609 311.275 133.693C306.793 139.777 306.472 145.22 306.472 146.18C306.472 147.14 301.669 152.264 299.748 158.027C297.828 163.79 297.187 167.313 297.187 167.313C297.187 167.313 285.34 163.79 271.252 181.722" stroke="#263238" stroke-width="2.35625" stroke-miterlimit="10" stroke-linecap="round" stroke-linejoin="round"/>
<path d="M267.729 188.123C267.729 188.123 262.286 193.246 259.725 207.654C257.164 222.063 256.844 228.467 252.681 235.83C248.519 243.195 245.637 248.958 252.361 251.199" stroke="#263238" stroke-width="2.35625" stroke-miterlimit="10" stroke-linecap="round" stroke-linejoin="round"/>
<path d="M266.128 148.74C266.128 148.74 238.271 158.346 232.188 171.153C226.104 183.96 224.824 197.088 226.104 203.172C226.408 204.616 226.64 206.438 226.812 208.412" stroke="#263238" stroke-width="2.35625" stroke-miterlimit="10" stroke-linecap="round" stroke-linejoin="round"/>
<path d="M224.503 197.729C224.503 197.729 220.341 192.925 215.858 204.773C211.375 216.62 205.612 231.028 202.73 238.072C199.848 245.116 201.45 248.319 202.73 249.599" stroke="#263238" stroke-width="2.35625" stroke-miterlimit="10" stroke-linecap="round" stroke-linejoin="round"/>
<path d="M215.859 204.773C215.859 204.773 206.573 198.049 198.249 198.368C189.924 198.689 183.199 204.132 181.919 205.733C181.919 205.733 171.993 202.21 162.707 209.895C153.421 217.58 152.781 226.545 152.781 226.545C152.781 226.545 147.978 216.619 137.732 225.904C127.486 235.188 137.092 245.436 147.337 249.917C157.583 254.4 181.674 265.639 181.674 265.639" stroke="#263238" stroke-width="2.35625" stroke-miterlimit="10" stroke-linecap="round" stroke-linejoin="round"/>
<path d="M152.779 226.547C152.779 226.547 161.534 238.067 170.009 242.91" stroke="#263238" stroke-width="2.35625" stroke-miterlimit="10" stroke-linecap="round" stroke-linejoin="round"/>
<path d="M181.919 205.732C181.919 205.732 181.513 225.957 185.75 238.065" stroke="#263238" stroke-width="2.35625" stroke-miterlimit="10" stroke-linecap="round" stroke-linejoin="round"/>
<path d="M153.101 183.32C153.101 183.32 156.622 176.597 155.022 171.154C153.421 165.711 130.688 165.07 120.442 173.395C110.196 181.719 105.713 184.601 100.911 193.887C96.1077 203.173 96.4282 209.576 96.4282 209.576C96.4282 209.576 90.9852 210.217 88.1035 217.901" stroke="#263238" stroke-width="2.35625" stroke-miterlimit="10" stroke-linecap="round" stroke-linejoin="round"/>
<path d="M134.53 190.365C134.53 190.365 131.328 189.084 122.043 194.207C112.757 199.329 111.797 205.413 111.477 210.537C111.156 215.659 113.398 220.142 113.398 220.142C113.398 220.142 121.404 224.625 127.807 224.945C134.211 225.266 137.732 225.266 138.694 220.783C139.654 216.3 129.728 204.453 129.728 204.453" stroke="#263238" stroke-width="2.35625" stroke-miterlimit="10" stroke-linecap="round" stroke-linejoin="round"/>
<path d="M101.229 214.379C101.229 214.379 107.952 221.102 113.395 220.142" stroke="#263238" stroke-width="2.35625" stroke-miterlimit="10" stroke-linecap="round" stroke-linejoin="round"/>
<path d="M154.381 186.522C154.381 186.522 155.022 169.871 167.188 167.631C179.356 165.39 202.089 174.035 202.089 174.035" stroke="#263238" stroke-width="2.35625" stroke-miterlimit="10" stroke-linecap="round" stroke-linejoin="round"/>
<path d="M163.986 168.591C163.986 168.591 163.346 159.946 160.783 154.183C158.222 148.419 159.823 145.858 164.946 144.578C170.068 143.297 179.995 142.976 187.039 139.455" stroke="#263238" stroke-width="2.35625" stroke-miterlimit="10" stroke-linecap="round" stroke-linejoin="round"/>
<path d="M230.906 128.248C230.906 128.248 217.778 131.45 218.74 144.578C219.7 157.706 231.547 164.109 232.507 166.031" stroke="#263238" stroke-width="2.35625" stroke-miterlimit="10" stroke-linecap="round" stroke-linejoin="round"/>
<path d="M258.442 151.94C258.442 151.94 256.521 142.015 262.605 135.931C268.688 129.847 269.649 124.404 292.382 126.965C315.115 129.526 312.554 129.526 312.554 129.526" stroke="#263238" stroke-width="2.35625" stroke-miterlimit="10" stroke-linecap="round" stroke-linejoin="round"/>
<path d="M272.211 126.967C272.211 126.967 261.645 124.406 249.798 123.765C237.95 123.124 207.213 126.967 194.725 128.568C182.238 130.169 163.026 131.45 148.618 138.494C134.209 145.538 130.047 149.38 130.047 149.38" stroke="#263238" stroke-width="2.35625" stroke-miterlimit="10" stroke-linecap="round" stroke-linejoin="round"/>
<path d="M157.969 134.498C157.969 134.498 157.584 131.131 163.988 125.047" stroke="#263238" stroke-width="2.35625" stroke-miterlimit="10" stroke-linecap="round" stroke-linejoin="round"/>
<path d="M377.963 244.522C382.28 234.574 383.937 224.859 386.839 219.502" stroke="#263238" stroke-width="2.35625" stroke-miterlimit="10" stroke-linecap="round" stroke-linejoin="round"/>
<path d="M245.516 285.821C250.999 285.301 256.842 284.98 258.764 285.461C262.606 286.421 277.334 290.904 285.34 286.741C293.344 282.579 305.832 280.337 305.832 280.337C305.832 280.337 309.034 280.978 318.64 276.495C328.245 272.012 336.571 266.89 337.531 266.57C338.491 266.249 359.945 270.732 370.51 257.283C371.451 256.087 372.321 254.862 373.128 253.623" stroke="#263238" stroke-width="2.35625" stroke-miterlimit="10" stroke-linecap="round" stroke-linejoin="round"/>
<path d="M189.283 280.658C189.283 280.658 201.451 294.107 205.932 293.466C209.479 292.959 224.649 289.848 231.307 288.252" stroke="#263238" stroke-width="2.35625" stroke-miterlimit="10" stroke-linecap="round" stroke-linejoin="round"/>
<path d="M213.296 291.863C213.296 291.863 206.892 304.671 212.655 322.281C218.419 339.892 225.463 351.098 225.463 351.098" stroke="#263238" stroke-width="2.35625" stroke-miterlimit="10" stroke-linecap="round" stroke-linejoin="round"/>
<path d="M272.785 320.129C275.905 320.837 278.061 321.038 282.778 318.761C292.064 314.278 299.748 311.717 305.511 311.717C311.275 311.717 316.398 315.879 324.723 316.839C333.048 317.799 353.54 315.238 357.702 319.401C361.864 323.563 366.668 335.41 371.47 337.332" stroke="#263238" stroke-width="2.35625" stroke-miterlimit="10" stroke-linecap="round" stroke-linejoin="round"/>
<path d="M229.305 329.007C229.305 329.007 241.471 318.76 257.801 318.44C259.937 318.399 261.783 318.449 263.398 318.56" stroke="#263238" stroke-width="2.35625" stroke-miterlimit="10" stroke-linecap="round" stroke-linejoin="round"/>
<path d="M374.352 316.52C369.87 318.441 363.465 322.603 363.465 322.603C363.465 322.603 383.958 334.13 384.278 341.495C384.599 348.859 369.549 348.859 369.549 348.859C369.549 348.859 365.644 350.3 342.384 342.796C319.124 335.293 314.622 332.292 295.864 335.293C277.106 338.294 276.356 339.795 265.852 345.797" stroke="#263238" stroke-width="2.35625" stroke-miterlimit="10" stroke-linecap="round" stroke-linejoin="round"/>
<path d="M427.293 329.148C435.682 329.456 442.997 328.935 444.474 331.889C446.714 336.372 446.075 339.574 446.075 339.574C446.075 339.574 474.571 352.061 473.931 356.223" stroke="#263238" stroke-width="2.35625" stroke-miterlimit="10" stroke-linecap="round" stroke-linejoin="round"/>
<path d="M332.408 302.11C332.408 302.11 347.777 296.346 359.945 296.026C372.111 295.705 397.727 304.671 399.647 310.114C401.569 315.557 401.569 323.882 414.056 327.404C415.146 327.712 416.259 327.965 417.385 328.175" stroke="#263238" stroke-width="2.35625" stroke-miterlimit="10" stroke-linecap="round" stroke-linejoin="round"/>
<path d="M473.61 347.896C473.61 347.896 479.694 344.373 476.172 337.329C472.649 330.285 463.364 317.798 449.595 309.793C435.828 301.789 424.3 301.789 424.3 301.789C424.3 301.789 426.541 284.499 424.3 275.854C422.059 267.208 421.098 262.086 421.098 262.086" stroke="#263238" stroke-width="2.35625" stroke-miterlimit="10" stroke-linecap="round" stroke-linejoin="round"/>
<path d="M425.582 282.578C425.582 282.578 429.744 274.253 436.468 270.73" stroke="#263238" stroke-width="2.35625" stroke-miterlimit="10" stroke-linecap="round" stroke-linejoin="round"/>
<path d="M399.006 255.682C399.006 255.682 401.246 271.371 400.927 273.613C400.607 275.854 395.803 278.735 393.883 288.021C391.961 297.307 389.721 301.149 389.721 301.149C389.721 301.149 391.001 303.71 396.125 302.75C401.248 301.79 410.854 288.662 410.854 288.662" stroke="#263238" stroke-width="2.35625" stroke-miterlimit="10" stroke-linecap="round" stroke-linejoin="round"/>
<path d="M470.648 294.986C470.248 300.509 468.967 305.152 466.886 307.553C462.724 312.357 461.123 318.12 461.123 318.12" stroke="#263238" stroke-width="2.35625" stroke-miterlimit="10" stroke-linecap="round" stroke-linejoin="round"/>
<path d="M412.91 243.852C409.379 241.138 407.104 235.93 411.493 230.388C417.577 222.703 428.143 216.619 429.104 215.338C430.064 214.058 428.783 206.373 432.945 204.452C437.108 202.531 449.275 210.536 455.039 218.861C460.802 227.186 462.083 236.472 461.443 240.634C460.802 244.796 466.246 265.289 469.128 277.136C469.829 280.017 470.303 283.013 470.558 285.967" stroke="#263238" stroke-width="2.35625" stroke-miterlimit="10" stroke-linecap="round" stroke-linejoin="round"/>
<path d="M447.353 239.993C447.353 239.993 444.792 235.831 439.029 239.033C434.933 241.308 428.253 244.067 422.891 245.245" stroke="#263238" stroke-width="2.35625" stroke-miterlimit="10" stroke-linecap="round" stroke-linejoin="round"/>
<path d="M449.276 245.758C449.276 245.758 453.759 260.166 454.719 272.014C455.68 283.861 453.118 288.663 453.118 288.663L446.074 288.342" stroke="#263238" stroke-width="2.35625" stroke-miterlimit="10" stroke-linecap="round" stroke-linejoin="round"/>
<path d="M453.119 288.662L461.444 293.465" stroke="#263238" stroke-width="2.35625" stroke-miterlimit="10" stroke-linecap="round" stroke-linejoin="round"/>
<path d="M351.617 155.464C351.617 155.464 352.577 139.134 371.789 143.937C391.001 148.74 390.36 177.557 390.36 177.557" stroke="#263238" stroke-width="2.35625" stroke-miterlimit="10" stroke-linecap="round" stroke-linejoin="round"/>
<path d="M387.799 164.43C387.799 164.43 392.921 158.987 403.488 160.588C414.055 162.189 418.536 166.351 418.536 166.351" stroke="#263238" stroke-width="2.35625" stroke-miterlimit="10" stroke-linecap="round" stroke-linejoin="round"/>
<path d="M410.213 166.67L425.582 180.758C425.582 180.758 428.143 179.477 432.946 179.798" stroke="#263238" stroke-width="2.35625" stroke-miterlimit="10" stroke-linecap="round" stroke-linejoin="round"/>
<path d="M109.694 167.903C109.694 167.903 104.921 173.358 101.852 177.45C98.7842 181.541 97.42 184.95 97.42 184.95C97.42 184.95 84.8058 193.132 81.7379 202.337C78.6701 211.541 76.9653 217.338 78.3284 226.542C79.6927 235.747 83.101 243.929 83.101 243.929C83.101 243.929 83.4415 252.793 97.7605 258.248C112.079 263.703 154.014 279.727 156.059 281.431C158.104 283.136 173.446 293.705 173.446 293.705L176.855 311.092C176.855 311.092 178.9 332.57 182.31 338.365C185.719 344.161 191.174 359.502 202.084 365.299C212.993 371.094 226.63 370.753 235.154 368.708C243.676 366.663 249.473 363.936 268.905 357.457C288.337 350.978 295.497 349.275 296.86 348.934C298.223 348.594 344.249 358.481 356.864 356.094C369.478 353.707 374.592 348.934 374.592 348.934C374.592 348.934 381.069 361.208 390.616 367.003C400.162 372.799 425.731 385.754 428.799 388.14C431.867 390.527 435.618 398.027 444.481 396.663C453.345 395.298 458.118 383.708 459.14 382.344C460.163 380.98 472.777 365.638 476.527 358.138C480.277 350.638 481.641 344.842 481.641 344.842C481.641 344.842 493.233 332.91 490.846 312.794C488.459 292.68 485.732 275.634 480.619 260.973C475.506 246.313 472.777 240.859 472.777 240.859C472.777 240.859 469.368 208.471 453.686 193.47C438.004 178.469 428.798 174.037 428.798 174.037C428.798 174.037 417.888 157.331 402.887 151.195C387.886 145.058 365.385 127.672 354.817 123.58C344.248 119.488 338.111 122.557 338.111 122.557C338.111 122.557 309.133 113.353 287.655 113.353C266.176 113.353 266.176 113.353 266.176 113.353C266.176 113.353 245.039 108.921 223.561 113.353C202.082 117.785 179.581 114.375 163.899 121.194C148.217 128.013 131.511 144.036 131.511 144.036C131.511 144.036 113.785 155.289 109.694 167.903Z" stroke="#263238" stroke-width="2.35625" stroke-miterlimit="10"/>
</svg>
